# File created by Blade
# Date/Time:  Thu Mar 15 16:00:31 2018
#---------------------------------------------------------
:version 1.10
:name HOM
:units
  mass 1.0
  length 1.000000
  angle deg
:documentation
     Acclaim Skeleton File
:root
   axis xyz
   order TX TY TZ RX RZ RY
   position 0.000000 0.000000 0.000000
   orientation 0 0 0
:bonedata
   begin
      id 1
      name Spine_dum
      direction 0.000000 0.554700 0.832050
      length 3.185137
      axis 0.0 0.0 0.0 xyz
   end
   begin
      id 2
      name RightUpLeg_dum
      direction -0.959879 0.000000 -0.280414
      length 3.741437
      axis 0.0 0.0 0.0 xyz
   end
   begin
      id 3
      name LeftUpLeg_dum
      direction 0.959879 0.000000 -0.280414
      length 3.741437
      axis 0.0 0.0 0.0 xyz
   end
   begin
      id 4
      name Spine
      direction 0.000000 0.173648 0.984808
      length 3.533592
      axis -10.0 0.0 0.0 xyz
      dof rx rz ry
   end
   begin
      id 5
      name Spine1
      direction 0.000000 0.087156 0.996195
      length 3.533592
      axis -5.0 0.0 0.0 xyz
      dof rx rz ry
   end
   begin
      id 6
      name Spine2
      direction 0.000000 0.000000 1.000000
      length 3.533592
      axis 0.0 0.0 0.0 xyz
      dof rx rz ry
   end
   begin
      id 7
      name Spine3
      direction 0.000000 -0.141421 0.989949
      length 0.000000
      axis 0.0 0.0 0.0 xyz
      dof rx rz ry
   end
   begin
      id 8
      name Spine3_dum1
      direction 0.000000 -0.141421 0.989949
      length 9.369850
      axis 0.0 0.0 0.0 xyz
   end
   begin
      id 9
      name Spine3_dum2
      direction -0.174242 -0.290403 0.940907
      length 6.947577
      axis 0.0 0.0 0.0 xyz
   end
   begin
      id 10
      name Spine3_dum3
      direction 0.174242 -0.290403 0.940907
      length 6.947577
      axis 0.0 0.0 0.0 xyz
   end
   begin
      id 11
      name Neck
      direction 0.000000 -0.173648 0.984808
      length 4.858689
      axis 10.0 0.0 0.0 xyz
      dof rx rz ry
   end
   begin
      id 12
      name Head
      direction 0.000000 0.000000 1.000000
      length 5.720002
      axis 0.0 0.0 0.0 xyz
      dof rx rz ry
   end
   begin
      id 13
      name RightShoulder
      direction -1.000000 0.000000 0.000000
      length 6.012446
      axis -180.0 0.0 -180.0 xyz
      dof rz rx ry
   end
   begin
      id 14
      name RightArm
      direction -1.000000 0.000000 0.000000
      length 11.728112
      axis -180.0 0.0 -180.0 xyz
      dof ry rz rx
   end
   begin
      id 15
      name RightForeArm
      direction -1.000000 0.000000 0.000000
      length 4.841601
      axis -180.0 0.0 -180.0 xyz
      dof rx ry rz
   end
   begin
      id 16
      name RightForeArmRoll
      direction -1.000000 0.000000 0.000000
      length 5.003964
      axis -180.0 0.0 -180.0 xyz
      dof rx ry rz
   end
   begin
      id 17
      name RightHand
      direction -1.000000 0.000000 0.000000
      length 0.000000
      axis -180.0 0.0 -180.0 xyz
      dof rx ry rz
   end
   begin
      id 18
      name RightHand_dum1
      direction -1.000000 0.000000 0.000000
      length 2.836875
      axis -180.0 0.0 -180.0 xyz
   end
   begin
      id 19
      name RightHand_dum2
      direction -0.486664 -0.811107 -0.324443
      length 2.331690
      axis -180.0 0.0 -180.0 xyz
   end
   begin
      id 20
      name RightHandEnd
      direction -1.000000 0.000000 0.000000
      length 2.836875
      axis 90.0 0.0 -180.0 xyz
      dof rx ry rz
   end
   begin
      id 21
      name RightHandThumb1
      direction -0.965926 -0.258819 0.000000
      length 2.836875
      axis -10.0 0.0 -165.0 xyz
      dof rx ry rz
   end
   begin
      id 22
      name LeftShoulder
      direction 1.000000 0.000000 0.000000
      length 6.012446
      axis 0.0 0.0 0.0 xyz
      dof rz rx ry
   end
   begin
      id 23
      name LeftArm
      direction 1.000000 0.000000 0.000000
      length 11.728112
      axis 0.0 0.0 0.0 xyz
      dof ry rz rx
   end
   begin
      id 24
      name LeftForeArm
      direction 1.000000 0.000000 0.000000
      length 4.841601
      axis 0.0 0.0 0.0 xyz
      dof rx ry rz
   end
   begin
      id 25
      name LeftForeArmRoll
      direction 1.000000 0.000000 0.000000
      length 5.003964
      axis 0.0 0.0 0.0 xyz
      dof rx ry rz
   end
   begin
      id 26
      name LeftHand
      direction 1.000000 0.000000 0.000000
      length 0.000000
      axis 0.0 0.0 0.0 xyz
      dof rx ry rz
   end
   begin
      id 27
      name LeftHand_dum1
      direction 1.000000 0.000000 0.000000
      length 2.836875
      axis 0.0 0.0 0.0 xyz
   end
   begin
      id 28
      name LeftHand_dum2
      direction 0.486664 -0.811107 -0.324443
      length 2.331690
      axis 0.0 0.0 0.0 xyz
   end
   begin
      id 29
      name LeftHandEnd
      direction 1.000000 0.000000 0.000000
      length 2.836875
      axis 90.0 0.0 0.0 xyz
      dof rx ry rz
   end
   begin
      id 30
      name LeftHandThumb1
      direction 0.965926 -0.258819 0.000000
      length 2.836875
      axis 170.0 0.0 -15.0 xyz
      dof rx ry rz
   end
   begin
      id 31
      name RightUpLeg
      direction 0.000000 0.000000 -1.000000
      length 15.861483
      axis 0.0 90.0 0.0 xyz
      dof ry rz rx
   end
   begin
      id 32
      name RightLeg
      direction 0.000000 0.000000 -1.000000
      length 17.164458
      axis 0.0 90.0 0.0 xyz
      dof rx ry rz
   end
   begin
      id 33
      name RightFoot
      direction 0.000000 -0.939693 -0.342020
      length 7.211980
      axis -90.0 20.0 -90.0 xyz
      dof rx rz ry
   end
   begin
      id 34
      name RightToeBase
      direction 0.000000 -1.000000 0.000000
      length 2.905343
      axis -90.0 0.0 -90.0 xyz
      dof ry rz rx
   end
   begin
      id 35
      name LeftUpLeg
      direction 0.000000 0.000000 -1.000000
      length 15.861483
      axis 0.0 90.0 0.0 xyz
      dof ry rz rx
   end
   begin
      id 36
      name LeftLeg
      direction 0.000000 0.000000 -1.000000
      length 17.164458
      axis 0.0 90.0 0.0 xyz
      dof rx ry rz
   end
   begin
      id 37
      name LeftFoot
      direction 0.000000 -0.939693 -0.342020
      length 7.211980
      axis -90.0 20.0 -90.0 xyz
      dof rx rz ry
   end
   begin
      id 38
      name LeftToeBase
      direction 0.000000 -1.000000 0.000000
      length 2.905343
      axis -90.0 0.0 -90.0 xyz
      dof ry rz rx
   end
:hierarchy
   begin
      root Spine_dum RightUpLeg_dum LeftUpLeg_dum
      Spine_dum Spine
      RightUpLeg_dum RightUpLeg
      LeftUpLeg_dum LeftUpLeg
      Spine Spine1
      Spine1 Spine2
      Spine2 Spine3
      Spine3 Spine3_dum1 Spine3_dum2 Spine3_dum3
      Spine3_dum1 Neck
      Spine3_dum2 RightShoulder
      Spine3_dum3 LeftShoulder
      Neck Head
      RightShoulder RightArm
      RightArm RightForeArm
      RightForeArm RightForeArmRoll
      RightForeArmRoll RightHand
      RightHand RightHand_dum1 RightHand_dum2
      RightHand_dum1 RightHandEnd
      RightHand_dum2 RightHandThumb1
      LeftShoulder LeftArm
      LeftArm LeftForeArm
      LeftForeArm LeftForeArmRoll
      LeftForeArmRoll LeftHand
      LeftHand LeftHand_dum1 LeftHand_dum2
      LeftHand_dum1 LeftHandEnd
      LeftHand_dum2 LeftHandThumb1
      RightUpLeg RightLeg
      RightLeg RightFoot
      RightFoot RightToeBase
      LeftUpLeg LeftLeg
      LeftLeg LeftFoot
      LeftFoot LeftToeBase
   end

# File created by Blade
# Date/Time:  Thu Mar 15 15:59:21 2018
# Frame Rate: 120.000 fps
#------------------------------------------------------
:FULLY-SPECIFIED
:DEGREES
88
root -0.254974 38.226705 -0.828185 -88.871086 0.137964 0.120862
Spine -0.188614 0.073863 0.333091
Spine1 -0.540630 0.001149 -0.000549
Spine2 1.366319 0.418919 0.500465
Spine3 0.106917 -0.069433 -0.423844
Neck -1.121785 -0.122792 -0.264815
Head -0.772832 -1.096083 -0.122277
RightShoulder 1.063163 -4.363174 -6.271634
RightArm -68.135063 -19.004164 -9.066004
RightForeArm 0.000000 -0.000000 -31.281219
RightForeArmRoll 4.267769 -0.000000 -0.000000
RightHand 0.000000 8.218150 -3.028041
RightHandEnd 0.000000 -0.000000 0.000000
RightHandThumb1 0.000000 -0.000000 0.000000
LeftShoulder 2.910348 5.137138 6.307354
LeftArm 67.645233 -38.109043 1.909772
LeftForeArm 0.000000 -0.000000 -19.120068
LeftForeArmRoll -4.638720 -0.000000 0.000000
LeftHand -0.000000 -21.381470 0.929978
LeftHandEnd 0.000000 -0.000000 0.000000
LeftHandThumb1 0.000000 -0.000000 0.000000
RightUpLeg 3.971119 -1.517042 9.402100
RightLeg -0.000000 -0.000000 14.538816
RightFoot 4.024361 -14.857425 -1.745661
RightToeBase -0.000000 0.662320 -0.000000
LeftUpLeg -5.198309 0.220003 0.732660
LeftLeg -0.000000 -0.000000 11.233459
LeftFoot -8.005086 -12.635575 -0.235151
LeftToeBase -0.000000 0.864004 -0.000000
89
root -0.256291 38.225681 -0.826594 -88.883827 0.128598 0.123378
Spine -0.181914 0.073302 0.327987
Spine1 -0.530402 0.001386 0.000153
Spine2 1.353180 0.420861 0.502833
Spine3 0.104832 -0.071262 -0.426860
Neck -1.117049 -0.118261 -0.282416
Head -0.754393 -1.108574 -0.109509
RightShoulder 1.056330 -4.347300 -6.254163
RightArm -68.170471 -18.867088 -9.058482
RightForeArm 0.000000 -0.000000 -31.300745
RightForeArmRoll 4.253485 -0.000000 -0.000000
RightHand 0.000000 7.966869 -2.993954
RightHandEnd 0.000000 -0.000000 0.000000
RightHandThumb1 0.000000 -0.000000 0.000000
LeftShoulder 2.894793 5.145840 6.303706
LeftArm 67.668564 -38.037666 1.895230
LeftForeArm 0.000000 -0.000000 -19.126324
LeftForeArmRoll -5.587252 -0.000000 0.000000
LeftHand 0.000000 -21.663723 0.269213
LeftHandEnd 0.000000 -0.000000 0.000000
LeftHandThumb1 0.000000 -0.000000 0.000000
RightUpLeg 3.957984 -1.493118 9.408646
RightLeg -0.000000 -0.000000 14.526469
RightFoot 3.992920 -14.854753 -1.732546
RightToeBase -0.000000 0.673565 -0.000000
LeftUpLeg -5.210267 0.248155 0.755841
LeftLeg -0.000000 -0.000000 11.213501
LeftFoot -8.034451 -12.625848 -0.247651
LeftToeBase -0.000000 0.821605 -0.000000
90
root -0.255594 38.224915 -0.827588 -88.893990 0.133773 0.114823
Spine -0.191614 0.071891 0.332127
Spine1 -0.552796 0.001617 0.014184
Spine2 1.407687 0.361740 0.469333
Spine3 0.110622 -0.060440 -0.420411
Neck -1.095351 -0.175775 -0.247125
Head -0.813423 -1.014294 -0.139577
RightShoulder 0.984509 -4.329248 -6.204000
RightArm -68.222191 -18.827555 -9.035719
RightForeArm 0.000000 -0.000000 -31.273924
RightForeArmRoll 4.261194 -0.000000 -0.000000
RightHand 0.000000 7.973292 -3.008121
RightHandEnd 0.000000 -0.000000 0.000000
RightHandThumb1 0.000000 -0.000000 0.000000
LeftShoulder 2.932634 5.108823 6.275160
LeftArm 67.769363 -37.812164 1.800483
LeftForeArm 0.000000 -0.000000 -19.185385
LeftForeArmRoll -5.587595 -0.000000 0.000000
LeftHand 0.000000 -21.220823 0.362409
LeftHandEnd 0.000000 -0.000000 0.000000
LeftHandThumb1 0.000000 -0.000000 0.000000
RightUpLeg 3.970612 -1.487875 9.434608
RightLeg -0.000000 -0.000000 14.525140
RightFoot 3.981185 -14.862092 -1.776096
RightToeBase -0.000000 0.949600 -0.000000
LeftUpLeg -5.201615 0.265587 0.774666
LeftLeg -0.000000 -0.000000 11.203540
LeftFoot -8.050309 -12.621742 -0.266412
LeftToeBase -0.000000 0.828384 -0.000000
91
root -0.256048 38.223665 -0.834105 -88.878639 0.152698 0.082205
Spine -0.196376 0.072739 0.350961
Spine1 -0.554783 0.002072 0.022414
Spine2 1.410841 0.357812 0.444356
Spine3 0.113861 -0.055357 -0.410337
Neck -1.114854 -0.176020 -0.226532
Head -0.814698 -0.987706 -0.169788
RightShoulder 0.951087 -4.319713 -6.191349
RightArm -68.220131 -18.828558 -9.030701
RightForeArm 0.000000 -0.000000 -31.251123
RightForeArmRoll 4.221812 -0.000000 -0.000000
RightHand -0.000000 7.958620 -2.971320
RightHandEnd 0.000000 -0.000000 0.000000
RightHandThumb1 0.000000 -0.000000 0.000000
LeftShoulder 2.934835 5.003485 6.235542
LeftArm 67.846382 -37.734753 1.848301
LeftForeArm 0.000000 -0.000000 -19.206787
LeftForeArmRoll -4.471176 -0.000000 0.000000
LeftHand 0.000000 -20.720766 1.111520
LeftHandEnd 0.000000 -0.000000 0.000000
LeftHandThumb1 0.000000 -0.000000 0.000000
RightUpLeg 4.003759 -1.507207 9.341292
RightLeg -0.000000 -0.000000 14.487623
RightFoot 3.960652 -14.856068 -1.812038
RightToeBase -0.000000 0.915914 -0.000000
LeftUpLeg -5.178592 0.238588 0.742144
LeftLeg -0.000000 -0.000000 11.210261
LeftFoot -8.041554 -12.624629 -0.272309
LeftToeBase -0.000000 0.831752 -0.000000
92
root -0.256568 38.223569 -0.837344 -88.867943 0.164014 0.068858
Spine -0.193882 0.073479 0.345300
Spine1 -0.545993 0.000220 0.001674
Spine2 1.384876 0.404906 0.496339
Spine3 0.113290 -0.074195 -0.411683
Neck -1.127541 -0.116338 -0.261538
Head -0.780937 -1.060276 -0.159715
RightShoulder 0.992967 -4.340896 -6.250568
RightArm -68.144730 -18.942696 -9.066907
RightForeArm 0.000000 -0.000000 -31.220224
RightForeArmRoll 4.175983 -0.000000 -0.000000
RightHand -0.000000 8.172401 -2.975541
RightHandEnd 0.000000 -0.000000 0.000000
RightHandThumb1 0.000000 -0.000000 0.000000
LeftShoulder 2.941001 5.091222 6.228700
LeftArm 67.837357 -37.787827 1.774832
LeftForeArm 0.000000 -0.000000 -19.195707
LeftForeArmRoll -5.347284 -0.000000 0.000000
LeftHand -0.000000 -21.113691 0.527297
LeftHandEnd 0.000000 -0.000000 0.000000
LeftHandThumb1 0.000000 -0.000000 0.000000
RightUpLeg 4.019382 -1.528278 9.347051
RightLeg -0.000000 -0.000000 14.487998
RightFoot 3.947762 -14.850695 -1.842311
RightToeBase -0.000000 0.645648 -0.000000
LeftUpLeg -5.160503 0.232574 0.750979
LeftLeg -0.000000 -0.000000 11.197052
LeftFoot -8.037840 -12.613204 -0.306456
LeftToeBase -0.000000 0.834868 -0.000000
93
root -0.255163 38.223545 -0.840308 -88.861145 0.175458 0.058061
Spine -0.206756 0.071453 0.350463
Spine1 -0.571933 0.000724 0.016583
Spine2 1.425810 0.367824 0.467005
Spine3 0.118966 -0.065092 -0.411281
Neck -1.111241 -0.150450 -0.203204
Head -0.826087 -1.016644 -0.202894
RightShoulder 0.958656 -4.340068 -6.221697
RightArm -68.152557 -18.958055 -9.047160
RightForeArm 0.000000 -0.000000 -31.186087
RightForeArmRoll 4.100612 -0.000000 -0.000000
RightHand -0.000000 8.184939 -2.955380
RightHandEnd 0.000000 -0.000000 0.000000
RightHandThumb1 0.000000 -0.000000 0.000000
LeftShoulder 2.977979 5.114931 6.289053
LeftArm 67.712708 -38.031929 1.888899
LeftForeArm 0.000000 -0.000000 -19.168789
LeftForeArmRoll -4.440273 -0.000000 0.000000
LeftHand 0.000000 -21.146790 1.134058
LeftHandEnd 0.000000 -0.000000 0.000000
LeftHandThumb1 0.000000 -0.000000 0.000000
RightUpLeg 4.035717 -1.550021 9.364021
RightLeg -0.000000 -0.000000 14.497090
RightFoot 3.947289 -14.843676 -1.867950
RightToeBase -0.000000 0.880591 -0.000000
LeftUpLeg -5.142214 0.225623 0.766347
LeftLeg -0.000000 -0.000000 11.190528
LeftFoot -8.037261 -12.609932 -0.337906
LeftToeBase -0.000000 0.829716 -0.000000
94
root -0.255656 38.225678 -0.843369 -88.852440 0.165202 0.047010
Spine -0.214229 0.068868 0.335998
Spine1 -0.586558 0.000917 0.016874
Spine2 1.445853 0.365272 0.463502
Spine3 0.124258 -0.061899 -0.408720
Neck -1.114381 -0.163099 -0.193009
Head -0.836712 -1.011327 -0.216413
RightShoulder 0.959917 -4.340465 -6.218503
RightArm -68.155594 -18.853556 -8.998349
RightForeArm 0.000000 -0.000000 -31.190210
RightForeArmRoll 4.091939 -0.000000 -0.000000
RightHand 0.000000 7.894850 -2.911788
RightHandEnd 0.000000 -0.000000 0.000000
RightHandThumb1 0.000000 -0.000000 0.000000
LeftShoulder 2.990672 5.116560 6.315465
LeftArm 67.654633 -38.135979 1.937718
LeftForeArm 0.000000 -0.000000 -19.143299
LeftForeArmRoll -5.347616 -0.000000 0.000000
LeftHand 0.000000 -21.651491 0.469486
LeftHandEnd 0.000000 -0.000000 0.000000
LeftHandThumb1 0.000000 -0.000000 0.000000
RightUpLeg 4.009488 -1.590648 9.426735
RightLeg -0.000000 -0.000000 14.557020
RightFoot 3.951009 -14.828566 -1.845721
RightToeBase -0.000000 0.883173 -0.000000
LeftUpLeg -5.151863 0.214857 0.748803
LeftLeg -0.000000 -0.000000 11.184019
LeftFoot -8.018878 -12.596919 -0.341943
LeftToeBase -0.000000 0.812654 -0.000000
